# xmcd CD database file
#
# Track frame offsets:
#	150
#	14677
#	28865
#	41535
#	55484
#	74165
#	86843
#	107425
#	121571
#	134507
#	148439
#	162282
#	176751
#	187894
#
# Disc length: 2687 seconds
#
# Revision: 1
# Processed by: cddbd v1.5.2PL0 Copyright (c) Steve Scherf et al.
# Submitted via: CDex 1.70beta2
#
DISCID=d00a7d0e
DTITLE=Varios - Los Grandes del Jazz cd3
DYEAR=2005
DGENRE=Jazz
TTITLE0=Arti Shaw& Orchestra - Begin The beguine
TTITLE1=Tommy dorsey and Orchestra - China Town my China Town
TTITLE2=Louis Armstrong - Helly roll blues
TTITLE3=Billie Holiday - Strange Fruit
TTITLE4=Sidney Bechet - Summertime
TTITLE5=Jimmie Lunceford 7 The firs time I saw you
TTITLE6=Les Elgar and Orchestra - Fly to the moon
TTITLE7=Coleman Hawkins - Stardust
TTITLE8=Ella Fisgerald - Savin myself for you
TTITLE9=Charlie Parker - April in Paris
TTITLE10=Errol Garner - Moonglow
TTITLE11=Fats Waller and his rhythm - You look good to me
TTITLE12=Mesade Lux Lewis - Honky tonk train blues
TTITLE13=Jack Reagarden - I'll remember
EXTD=YEAR: 2005
EXTT0=
EXTT1=
EXTT2=
EXTT3=
EXTT4=
EXTT5=
EXTT6=
EXTT7=
EXTT8=
EXTT9=
EXTT10=
EXTT11=
EXTT12=
EXTT13=
PLAYORDER=
